<?xml version="1.0" encoding="UTF-8"?>
<svg width="300px" height="300px" viewBox="0 0 300 300" version="1.1" xmlns="http://www.w3.org/2000/svg" xmlns:xlink="http://www.w3.org/1999/xlink">
    <!-- Generator: Sketch 60 (88103) - https://sketch.com -->
    <title>bBTC</title>
    <desc>Created with Sketch.</desc>
    <g id="bBTC" stroke="none" stroke-width="1" fill="none" fill-rule="evenodd">
        <g id="bsv">
            <g id="编组">
                <g id="BTC_Logo" fill-rule="nonzero">
                    <path d="M295.5,186.3 C275.478,266.649 194.073,315.552 113.7,295.5 C33.327,275.448 -15.5535,194.0835 4.5,113.727 C24.5535,33.3705 105.918,-15.555 186.273,4.5 C266.628,24.555 315.5535,105.924 295.5,186.3 L295.5,186.3 Z" id="路径" fill="#F7931A"></path>
                    <path d="M216.15,128.6295 C219.132,108.669 203.934,97.938 183.15,90.78 L189.9,63.7425 L173.436,59.6415 L166.86,85.968 C162.537,84.891 158.094,83.868 153.678,82.866 L160.278,56.3655 L143.8305,52.2645 L137.1,79.2915 L103.902,71.0685 L99.522,88.65 C99.522,88.65 111.735,91.449 111.477,91.623 C118.143,93.288 119.352,97.698 119.148,101.196 L100.677,175.266 C99.861,177.291 97.794,180.327 93.135,179.166 C93.3,179.406 81.171,176.166 81.171,176.166 L72.999,195.0345 L106.149,203.4045 L99.336,230.757 L115.776,234.858 L122.526,207.7995 C127.026,209.0175 131.376,210.1425 135.639,211.2015 L128.916,238.134 L145.377,242.235 L152.19,214.935 C180.2595,220.245 201.3675,218.103 210.24,192.735 C217.398,172.2975 209.889,160.5075 195.12,152.8155 C205.875,150.3255 213.975,143.2545 216.1365,128.64 M178.53,181.368 C173.43,201.8055 139.0275,190.761 127.8645,187.986 L136.9035,151.7535 C148.0605,154.5375 183.837,160.0515 178.536,181.365 M183.636,128.34 C178.995,146.94 150.3495,137.49 141.0525,135.171 L149.2365,102.3 C158.5365,104.622 188.463,108.945 183.624,128.3385" id="形状" fill="#FFFFFF"></path>
                </g>
                <circle id="椭圆形" stroke="#007CEB" stroke-width="10" cx="150" cy="150" r="145"></circle>
                <g id="编组-2" opacity="0.75" transform="translate(30.000000, 30.000000)" stroke="#FFFFFF" stroke-width="8">
                    <circle id="椭圆形" opacity="0.8" cx="119.5" cy="119.5" r="119.5"></circle>
                    <circle id="椭圆形" opacity="0.5" cx="120.5" cy="120.5" r="97.5"></circle>
                    <circle id="椭圆形" opacity="0.3" cx="120" cy="120" r="73"></circle>
                    <circle id="椭圆形" opacity="0.1" cx="120.5" cy="120.5" r="50.5"></circle>
                    <circle id="椭圆形" opacity="0.05" cx="120" cy="120" r="29"></circle>
                </g>
            </g>
        </g>
    </g>
</svg>