<?xml version="1.0" encoding="UTF-8"?>
<svg width="1440px" height="160px" viewBox="0 0 1440 160" version="1.1" xmlns="http://www.w3.org/2000/svg" xmlns:xlink="http://www.w3.org/1999/xlink">
    <title>位图</title>
    <defs>
        <rect id="path-1" x="0" y="0" width="1440" height="160"></rect>
        <linearGradient x1="50%" y1="11.1532695%" x2="50%" y2="146.763437%" id="linearGradient-3">
            <stop stop-color="#C7C7C7" stop-opacity="0" offset="0%"></stop>
            <stop stop-color="#000000" offset="100%"></stop>
        </linearGradient>
        <linearGradient x1="49.7272805%" y1="35.6282502%" x2="50.3819352%" y2="50%" id="linearGradient-4">
            <stop stop-color="#000000" offset="0%"></stop>
            <stop stop-color="#000000" stop-opacity="0.6" offset="34.3855574%"></stop>
            <stop stop-color="#4F4F4F" stop-opacity="0.28" offset="67%"></stop>
            <stop stop-color="#525252" stop-opacity="0.08" offset="89%"></stop>
            <stop stop-color="#0080FF" stop-opacity="0" offset="100%"></stop>
        </linearGradient>
    </defs>
    <g id="页面-1" stroke="none" stroke-width="1" fill="none" fill-rule="evenodd">
        <g id="导航网站备份-2" transform="translate(0.000000, -1027.000000)">
            <g id="位图" transform="translate(0.000000, 1027.000000)">
                <mask id="mask-2" fill="white">
                    <use xlink:href="#path-1"></use>
                </mask>
                <use id="蒙版" fill="#2C2C2C" xlink:href="#path-1"></use>
                <path d="M1441.94581,0 C1373.40107,7.04911131 1332.53213,20.8767316 1319.33902,41.482861 C1299.54935,72.392055 1291.83282,92.3113067 1234.18804,109.965514 C1176.54327,127.619721 1138.84245,149.157323 1144.87872,160 L1442.24586,160" id="Path-8-Copy-2" fill="url(#linearGradient-3)" opacity="0.6" mask="url(#mask-2)"></path>
                <path d="M298.699953,0 C230.155204,7.04911131 189.286273,20.8767316 176.093158,41.482861 C156.303486,72.392055 148.586957,92.3113067 90.9421805,109.965514 C33.2974043,127.619721 -4.40340939,149.157323 1.63285773,160 L299,160" id="Path-8-Copy-2备份" fill="url(#linearGradient-3)" opacity="0.6" mask="url(#mask-2)" transform="translate(150.000000, 80.000000) scale(-1, -1) translate(-150.000000, -80.000000) "></path>
                <g id="Group-13-Copy-4" opacity="0.300000012" mask="url(#mask-2)" fill="#FFFFFF" fill-rule="nonzero">
                    <g transform="translate(1390.000000, -45.000000)">
                        <circle id="Oval-Copy-16" cx="1.5" cy="51.5" r="1.5"></circle>
                        <circle id="Oval-Copy-18" cx="41.5" cy="51.5" r="1.5"></circle>
                        <circle id="Oval-Copy-20" cx="11.5" cy="51.5" r="1.5"></circle>
                        <circle id="Oval-Copy-24" cx="21.5" cy="51.5" r="1.5"></circle>
                        <circle id="Oval-Copy-28" cx="31.5" cy="51.5" r="1.5"></circle>
                        <circle id="Oval-Copy-16" cx="1.5" cy="61.5" r="1.5"></circle>
                        <circle id="Oval-Copy-18" cx="41.5" cy="61.5" r="1.5"></circle>
                        <circle id="Oval-Copy-20" cx="11.5" cy="61.5" r="1.5"></circle>
                        <circle id="Oval-Copy-24" cx="21.5" cy="61.5" r="1.5"></circle>
                        <circle id="Oval-Copy-28" cx="31.5" cy="61.5" r="1.5"></circle>
                        <circle id="Oval-Copy-16" cx="1.5" cy="71.5" r="1.5"></circle>
                        <circle id="Oval-Copy-18" cx="41.5" cy="71.5" r="1.5"></circle>
                        <circle id="Oval-Copy-20" cx="11.5" cy="71.5" r="1.5"></circle>
                        <circle id="Oval-Copy-24" cx="21.5" cy="71.5" r="1.5"></circle>
                        <circle id="Oval-Copy-28" cx="31.5" cy="71.5" r="1.5"></circle>
                        <circle id="Oval-Copy-16" cx="1.5" cy="91.5" r="1.5"></circle>
                        <circle id="Oval-Copy-18" cx="41.5" cy="91.5" r="1.5"></circle>
                        <circle id="Oval-Copy-20" cx="11.5" cy="91.5" r="1.5"></circle>
                        <circle id="Oval-Copy-24" cx="21.5" cy="91.5" r="1.5"></circle>
                        <circle id="Oval-Copy-28" cx="31.5" cy="91.5" r="1.5"></circle>
                        <circle id="Oval-Copy-16" cx="1.5" cy="111.5" r="1.5"></circle>
                        <circle id="Oval-Copy-18" cx="41.5" cy="111.5" r="1.5"></circle>
                        <circle id="Oval-Copy-20" cx="11.5" cy="111.5" r="1.5"></circle>
                        <circle id="Oval-Copy-24" cx="21.5" cy="111.5" r="1.5"></circle>
                        <circle id="Oval-Copy-28" cx="31.5" cy="111.5" r="1.5"></circle>
                        <circle id="Oval-Copy-16" cx="1.5" cy="141.5" r="1.5"></circle>
                        <circle id="Oval-Copy-18" cx="41.5" cy="141.5" r="1.5"></circle>
                        <circle id="Oval-Copy-20" cx="11.5" cy="141.5" r="1.5"></circle>
                        <circle id="Oval-Copy-24" cx="21.5" cy="141.5" r="1.5"></circle>
                        <circle id="Oval-Copy-28" cx="31.5" cy="141.5" r="1.5"></circle>
                        <circle id="Oval-Copy-16" cx="1.5" cy="81.5" r="1.5"></circle>
                        <circle id="Oval-Copy-18" cx="41.5" cy="81.5" r="1.5"></circle>
                        <circle id="Oval-Copy-20" cx="11.5" cy="81.5" r="1.5"></circle>
                        <circle id="Oval-Copy-24" cx="21.5" cy="81.5" r="1.5"></circle>
                        <circle id="Oval-Copy-28" cx="31.5" cy="81.5" r="1.5"></circle>
                        <circle id="Oval-Copy-16" cx="1.5" cy="101.5" r="1.5"></circle>
                        <circle id="Oval-Copy-18" cx="41.5" cy="101.5" r="1.5"></circle>
                        <circle id="Oval-Copy-20" cx="11.5" cy="101.5" r="1.5"></circle>
                        <circle id="Oval-Copy-24" cx="21.5" cy="101.5" r="1.5"></circle>
                        <circle id="Oval-Copy-28" cx="31.5" cy="101.5" r="1.5"></circle>
                        <circle id="Oval-Copy-16" cx="1.5" cy="131.5" r="1.5"></circle>
                        <circle id="Oval-Copy-18" cx="41.5" cy="131.5" r="1.5"></circle>
                        <circle id="Oval-Copy-20" cx="11.5" cy="131.5" r="1.5"></circle>
                        <circle id="Oval-Copy-24" cx="21.5" cy="131.5" r="1.5"></circle>
                        <circle id="Oval-Copy-28" cx="31.5" cy="131.5" r="1.5"></circle>
                        <circle id="Oval-Copy-16" cx="1.5" cy="121.5" r="1.5"></circle>
                        <circle id="Oval-Copy-18" cx="41.5" cy="121.5" r="1.5"></circle>
                        <circle id="Oval-Copy-20" cx="11.5" cy="121.5" r="1.5"></circle>
                        <circle id="Oval-Copy-24" cx="21.5" cy="121.5" r="1.5"></circle>
                        <circle id="Oval-Copy-28" cx="31.5" cy="121.5" r="1.5"></circle>
                        <circle id="Oval-Copy-16" cx="1.5" cy="151.5" r="1.5"></circle>
                        <circle id="Oval-Copy-18" cx="41.5" cy="151.5" r="1.5"></circle>
                        <circle id="Oval-Copy-20" cx="11.5" cy="151.5" r="1.5"></circle>
                        <circle id="Oval-Copy-24" cx="21.5" cy="151.5" r="1.5"></circle>
                        <circle id="Oval-Copy-28" cx="31.5" cy="151.5" r="1.5"></circle>
                    </g>
                </g>
                <path d="M1197,585 C1197,321.560174 983.439826,108 720,108 C456.560174,108 243,321.560174 243,585" id="Shape-Copy-2" fill="url(#linearGradient-4)" opacity="0.6" mask="url(#mask-2)"></path>
                <g id="Group-13-Copy-3" opacity="0.300000012" mask="url(#mask-2)" fill="#FFFFFF" fill-rule="nonzero">
                    <g transform="translate(62.000000, 47.000000)">
                        <circle id="Oval-Copy-16" cx="1.5" cy="11.5" r="1.5"></circle>
                        <circle id="Oval-Copy-32" cx="1.5" cy="1.5" r="1.5"></circle>
                        <circle id="Oval-Copy-17" cx="81.5" cy="11.5" r="1.5"></circle>
                        <circle id="Oval-Copy-33" cx="81.5" cy="1.5" r="1.5"></circle>
                        <circle id="Oval-Copy-18" cx="41.5" cy="11.5" r="1.5"></circle>
                        <circle id="Oval-Copy-34" cx="41.5" cy="1.5" r="1.5"></circle>
                        <circle id="Oval-Copy-19" cx="121.5" cy="11.5" r="1.5"></circle>
                        <circle id="Oval-Copy-35" cx="121.5" cy="1.5" r="1.5"></circle>
                        <circle id="Oval-Copy-20" cx="11.5" cy="11.5" r="1.5"></circle>
                        <circle id="Oval-Copy-36" cx="11.5" cy="1.5" r="1.5"></circle>
                        <circle id="Oval-Copy-21" cx="91.5" cy="11.5" r="1.5"></circle>
                        <circle id="Oval-Copy-37" cx="91.5" cy="1.5" r="1.5"></circle>
                        <circle id="Oval-Copy-22" cx="51.5" cy="11.5" r="1.5"></circle>
                        <circle id="Oval-Copy-38" cx="51.5" cy="1.5" r="1.5"></circle>
                        <circle id="Oval-Copy-23" cx="131.5" cy="11.5" r="1.5"></circle>
                        <circle id="Oval-Copy-39" cx="131.5" cy="1.5" r="1.5"></circle>
                        <circle id="Oval-Copy-24" cx="21.5" cy="11.5" r="1.5"></circle>
                        <circle id="Oval-Copy-40" cx="21.5" cy="1.5" r="1.5"></circle>
                        <circle id="Oval-Copy-25" cx="101.5" cy="11.5" r="1.5"></circle>
                        <circle id="Oval-Copy-41" cx="101.5" cy="1.5" r="1.5"></circle>
                        <circle id="Oval-Copy-26" cx="61.5" cy="11.5" r="1.5"></circle>
                        <circle id="Oval-Copy-42" cx="61.5" cy="1.5" r="1.5"></circle>
                        <circle id="Oval-Copy-27" cx="141.5" cy="11.5" r="1.5"></circle>
                        <circle id="Oval-Copy-43" cx="141.5" cy="1.5" r="1.5"></circle>
                        <circle id="Oval-Copy-28" cx="31.5" cy="11.5" r="1.5"></circle>
                        <circle id="Oval-Copy-44" cx="31.5" cy="1.5" r="1.5"></circle>
                        <circle id="Oval-Copy-29" cx="111.5" cy="11.5" r="1.5"></circle>
                        <circle id="Oval-Copy-45" cx="111.5" cy="1.5" r="1.5"></circle>
                        <circle id="Oval-Copy-30" cx="71.5" cy="11.5" r="1.5"></circle>
                        <circle id="Oval-Copy-46" cx="71.5" cy="1.5" r="1.5"></circle>
                        <circle id="Oval-Copy-31" cx="151.5" cy="11.5" r="1.5"></circle>
                        <circle id="Oval-Copy-47" cx="151.5" cy="1.5" r="1.5"></circle>
                        <circle id="Oval-Copy-16" cx="1.5" cy="51.5" r="1.5"></circle>
                        <circle id="Oval-Copy-17" cx="81.5" cy="51.5" r="1.5"></circle>
                        <circle id="Oval-Copy-18" cx="41.5" cy="51.5" r="1.5"></circle>
                        <circle id="Oval-Copy-19" cx="121.5" cy="51.5" r="1.5"></circle>
                        <circle id="Oval-Copy-20" cx="11.5" cy="51.5" r="1.5"></circle>
                        <circle id="Oval-Copy-21" cx="91.5" cy="51.5" r="1.5"></circle>
                        <circle id="Oval-Copy-22" cx="51.5" cy="51.5" r="1.5"></circle>
                        <circle id="Oval-Copy-23" cx="131.5" cy="51.5" r="1.5"></circle>
                        <circle id="Oval-Copy-24" cx="21.5" cy="51.5" r="1.5"></circle>
                        <circle id="Oval-Copy-25" cx="101.5" cy="51.5" r="1.5"></circle>
                        <circle id="Oval-Copy-26" cx="61.5" cy="51.5" r="1.5"></circle>
                        <circle id="Oval-Copy-27" cx="141.5" cy="51.5" r="1.5"></circle>
                        <circle id="Oval-Copy-28" cx="31.5" cy="51.5" r="1.5"></circle>
                        <circle id="Oval-Copy-29" cx="111.5" cy="51.5" r="1.5"></circle>
                        <circle id="Oval-Copy-30" cx="71.5" cy="51.5" r="1.5"></circle>
                        <circle id="Oval-Copy-31" cx="151.5" cy="51.5" r="1.5"></circle>
                        <circle id="Oval-Copy-16" cx="1.5" cy="21.5" r="1.5"></circle>
                        <circle id="Oval-Copy-17" cx="81.5" cy="21.5" r="1.5"></circle>
                        <circle id="Oval-Copy-18" cx="41.5" cy="21.5" r="1.5"></circle>
                        <circle id="Oval-Copy-19" cx="121.5" cy="21.5" r="1.5"></circle>
                        <circle id="Oval-Copy-20" cx="11.5" cy="21.5" r="1.5"></circle>
                        <circle id="Oval-Copy-21" cx="91.5" cy="21.5" r="1.5"></circle>
                        <circle id="Oval-Copy-22" cx="51.5" cy="21.5" r="1.5"></circle>
                        <circle id="Oval-Copy-23" cx="131.5" cy="21.5" r="1.5"></circle>
                        <circle id="Oval-Copy-24" cx="21.5" cy="21.5" r="1.5"></circle>
                        <circle id="Oval-Copy-25" cx="101.5" cy="21.5" r="1.5"></circle>
                        <circle id="Oval-Copy-26" cx="61.5" cy="21.5" r="1.5"></circle>
                        <circle id="Oval-Copy-27" cx="141.5" cy="21.5" r="1.5"></circle>
                        <circle id="Oval-Copy-28" cx="31.5" cy="21.5" r="1.5"></circle>
                        <circle id="Oval-Copy-29" cx="111.5" cy="21.5" r="1.5"></circle>
                        <circle id="Oval-Copy-30" cx="71.5" cy="21.5" r="1.5"></circle>
                        <circle id="Oval-Copy-31" cx="151.5" cy="21.5" r="1.5"></circle>
                        <circle id="Oval-Copy-16" cx="1.5" cy="61.5" r="1.5"></circle>
                        <circle id="Oval-Copy-17" cx="81.5" cy="61.5" r="1.5"></circle>
                        <circle id="Oval-Copy-18" cx="41.5" cy="61.5" r="1.5"></circle>
                        <circle id="Oval-Copy-19" cx="121.5" cy="61.5" r="1.5"></circle>
                        <circle id="Oval-Copy-20" cx="11.5" cy="61.5" r="1.5"></circle>
                        <circle id="Oval-Copy-21" cx="91.5" cy="61.5" r="1.5"></circle>
                        <circle id="Oval-Copy-22" cx="51.5" cy="61.5" r="1.5"></circle>
                        <circle id="Oval-Copy-23" cx="131.5" cy="61.5" r="1.5"></circle>
                        <circle id="Oval-Copy-24" cx="21.5" cy="61.5" r="1.5"></circle>
                        <circle id="Oval-Copy-25" cx="101.5" cy="61.5" r="1.5"></circle>
                        <circle id="Oval-Copy-26" cx="61.5" cy="61.5" r="1.5"></circle>
                        <circle id="Oval-Copy-27" cx="141.5" cy="61.5" r="1.5"></circle>
                        <circle id="Oval-Copy-28" cx="31.5" cy="61.5" r="1.5"></circle>
                        <circle id="Oval-Copy-29" cx="111.5" cy="61.5" r="1.5"></circle>
                        <circle id="Oval-Copy-30" cx="71.5" cy="61.5" r="1.5"></circle>
                        <circle id="Oval-Copy-31" cx="151.5" cy="61.5" r="1.5"></circle>
                        <circle id="Oval-Copy-16" cx="1.5" cy="31.5" r="1.5"></circle>
                        <circle id="Oval-Copy-17" cx="81.5" cy="31.5" r="1.5"></circle>
                        <circle id="Oval-Copy-18" cx="41.5" cy="31.5" r="1.5"></circle>
                        <circle id="Oval-Copy-19" cx="121.5" cy="31.5" r="1.5"></circle>
                        <circle id="Oval-Copy-20" cx="11.5" cy="31.5" r="1.5"></circle>
                        <circle id="Oval-Copy-21" cx="91.5" cy="31.5" r="1.5"></circle>
                        <circle id="Oval-Copy-22" cx="51.5" cy="31.5" r="1.5"></circle>
                        <circle id="Oval-Copy-23" cx="131.5" cy="31.5" r="1.5"></circle>
                        <circle id="Oval-Copy-24" cx="21.5" cy="31.5" r="1.5"></circle>
                        <circle id="Oval-Copy-25" cx="101.5" cy="31.5" r="1.5"></circle>
                        <circle id="Oval-Copy-26" cx="61.5" cy="31.5" r="1.5"></circle>
                        <circle id="Oval-Copy-27" cx="141.5" cy="31.5" r="1.5"></circle>
                        <circle id="Oval-Copy-28" cx="31.5" cy="31.5" r="1.5"></circle>
                        <circle id="Oval-Copy-29" cx="111.5" cy="31.5" r="1.5"></circle>
                        <circle id="Oval-Copy-30" cx="71.5" cy="31.5" r="1.5"></circle>
                        <circle id="Oval-Copy-31" cx="151.5" cy="31.5" r="1.5"></circle>
                        <circle id="Oval-Copy-16" cx="1.5" cy="71.5" r="1.5"></circle>
                        <circle id="Oval-Copy-17" cx="81.5" cy="71.5" r="1.5"></circle>
                        <circle id="Oval-Copy-18" cx="41.5" cy="71.5" r="1.5"></circle>
                        <circle id="Oval-Copy-19" cx="121.5" cy="71.5" r="1.5"></circle>
                        <circle id="Oval-Copy-20" cx="11.5" cy="71.5" r="1.5"></circle>
                        <circle id="Oval-Copy-21" cx="91.5" cy="71.5" r="1.5"></circle>
                        <circle id="Oval-Copy-22" cx="51.5" cy="71.5" r="1.5"></circle>
                        <circle id="Oval-Copy-23" cx="131.5" cy="71.5" r="1.5"></circle>
                        <circle id="Oval-Copy-24" cx="21.5" cy="71.5" r="1.5"></circle>
                        <circle id="Oval-Copy-25" cx="101.5" cy="71.5" r="1.5"></circle>
                        <circle id="Oval-Copy-26" cx="61.5" cy="71.5" r="1.5"></circle>
                        <circle id="Oval-Copy-27" cx="141.5" cy="71.5" r="1.5"></circle>
                        <circle id="Oval-Copy-28" cx="31.5" cy="71.5" r="1.5"></circle>
                        <circle id="Oval-Copy-29" cx="111.5" cy="71.5" r="1.5"></circle>
                        <circle id="Oval-Copy-30" cx="71.5" cy="71.5" r="1.5"></circle>
                        <circle id="Oval-Copy-31" cx="151.5" cy="71.5" r="1.5"></circle>
                        <circle id="Oval-Copy-16" cx="1.5" cy="91.5" r="1.5"></circle>
                        <circle id="Oval-Copy-17" cx="81.5" cy="91.5" r="1.5"></circle>
                        <circle id="Oval-Copy-18" cx="41.5" cy="91.5" r="1.5"></circle>
                        <circle id="Oval-Copy-19" cx="121.5" cy="91.5" r="1.5"></circle>
                        <circle id="Oval-Copy-20" cx="11.5" cy="91.5" r="1.5"></circle>
                        <circle id="Oval-Copy-21" cx="91.5" cy="91.5" r="1.5"></circle>
                        <circle id="Oval-Copy-22" cx="51.5" cy="91.5" r="1.5"></circle>
                        <circle id="Oval-Copy-23" cx="131.5" cy="91.5" r="1.5"></circle>
                        <circle id="Oval-Copy-24" cx="21.5" cy="91.5" r="1.5"></circle>
                        <circle id="Oval-Copy-25" cx="101.5" cy="91.5" r="1.5"></circle>
                        <circle id="Oval-Copy-26" cx="61.5" cy="91.5" r="1.5"></circle>
                        <circle id="Oval-Copy-27" cx="141.5" cy="91.5" r="1.5"></circle>
                        <circle id="Oval-Copy-28" cx="31.5" cy="91.5" r="1.5"></circle>
                        <circle id="Oval-Copy-29" cx="111.5" cy="91.5" r="1.5"></circle>
                        <circle id="Oval-Copy-30" cx="71.5" cy="91.5" r="1.5"></circle>
                        <circle id="Oval-Copy-31" cx="151.5" cy="91.5" r="1.5"></circle>
                        <circle id="Oval-Copy-16" cx="1.5" cy="111.5" r="1.5"></circle>
                        <circle id="Oval-Copy-17" cx="81.5" cy="111.5" r="1.5"></circle>
                        <circle id="Oval-Copy-18" cx="41.5" cy="111.5" r="1.5"></circle>
                        <circle id="Oval-Copy-19" cx="121.5" cy="111.5" r="1.5"></circle>
                        <circle id="Oval-Copy-20" cx="11.5" cy="111.5" r="1.5"></circle>
                        <circle id="Oval-Copy-21" cx="91.5" cy="111.5" r="1.5"></circle>
                        <circle id="Oval-Copy-22" cx="51.5" cy="111.5" r="1.5"></circle>
                        <circle id="Oval-Copy-23" cx="131.5" cy="111.5" r="1.5"></circle>
                        <circle id="Oval-Copy-24" cx="21.5" cy="111.5" r="1.5"></circle>
                        <circle id="Oval-Copy-25" cx="101.5" cy="111.5" r="1.5"></circle>
                        <circle id="Oval-Copy-26" cx="61.5" cy="111.5" r="1.5"></circle>
                        <circle id="Oval-Copy-27" cx="141.5" cy="111.5" r="1.5"></circle>
                        <circle id="Oval-Copy-28" cx="31.5" cy="111.5" r="1.5"></circle>
                        <circle id="Oval-Copy-29" cx="111.5" cy="111.5" r="1.5"></circle>
                        <circle id="Oval-Copy-30" cx="71.5" cy="111.5" r="1.5"></circle>
                        <circle id="Oval-Copy-31" cx="151.5" cy="111.5" r="1.5"></circle>
                        <circle id="Oval-Copy-16" cx="1.5" cy="41.5" r="1.5"></circle>
                        <circle id="Oval-Copy-17" cx="81.5" cy="41.5" r="1.5"></circle>
                        <circle id="Oval-Copy-18" cx="41.5" cy="41.5" r="1.5"></circle>
                        <circle id="Oval-Copy-19" cx="121.5" cy="41.5" r="1.5"></circle>
                        <circle id="Oval-Copy-20" cx="11.5" cy="41.5" r="1.5"></circle>
                        <circle id="Oval-Copy-21" cx="91.5" cy="41.5" r="1.5"></circle>
                        <circle id="Oval-Copy-22" cx="51.5" cy="41.5" r="1.5"></circle>
                        <circle id="Oval-Copy-23" cx="131.5" cy="41.5" r="1.5"></circle>
                        <circle id="Oval-Copy-24" cx="21.5" cy="41.5" r="1.5"></circle>
                        <circle id="Oval-Copy-25" cx="101.5" cy="41.5" r="1.5"></circle>
                        <circle id="Oval-Copy-26" cx="61.5" cy="41.5" r="1.5"></circle>
                        <circle id="Oval-Copy-27" cx="141.5" cy="41.5" r="1.5"></circle>
                        <circle id="Oval-Copy-28" cx="31.5" cy="41.5" r="1.5"></circle>
                        <circle id="Oval-Copy-29" cx="111.5" cy="41.5" r="1.5"></circle>
                        <circle id="Oval-Copy-30" cx="71.5" cy="41.5" r="1.5"></circle>
                        <circle id="Oval-Copy-31" cx="151.5" cy="41.5" r="1.5"></circle>
                        <circle id="Oval-Copy-16" cx="1.5" cy="81.5" r="1.5"></circle>
                        <circle id="Oval-Copy-17" cx="81.5" cy="81.5" r="1.5"></circle>
                        <circle id="Oval-Copy-18" cx="41.5" cy="81.5" r="1.5"></circle>
                        <circle id="Oval-Copy-19" cx="121.5" cy="81.5" r="1.5"></circle>
                        <circle id="Oval-Copy-20" cx="11.5" cy="81.5" r="1.5"></circle>
                        <circle id="Oval-Copy-21" cx="91.5" cy="81.5" r="1.5"></circle>
                        <circle id="Oval-Copy-22" cx="51.5" cy="81.5" r="1.5"></circle>
                        <circle id="Oval-Copy-23" cx="131.5" cy="81.5" r="1.5"></circle>
                        <circle id="Oval-Copy-24" cx="21.5" cy="81.5" r="1.5"></circle>
                        <circle id="Oval-Copy-25" cx="101.5" cy="81.5" r="1.5"></circle>
                        <circle id="Oval-Copy-26" cx="61.5" cy="81.5" r="1.5"></circle>
                        <circle id="Oval-Copy-27" cx="141.5" cy="81.5" r="1.5"></circle>
                        <circle id="Oval-Copy-28" cx="31.5" cy="81.5" r="1.5"></circle>
                        <circle id="Oval-Copy-29" cx="111.5" cy="81.5" r="1.5"></circle>
                        <circle id="Oval-Copy-30" cx="71.5" cy="81.5" r="1.5"></circle>
                        <circle id="Oval-Copy-31" cx="151.5" cy="81.5" r="1.5"></circle>
                        <circle id="Oval-Copy-16" cx="1.5" cy="101.5" r="1.5"></circle>
                        <circle id="Oval-Copy-17" cx="81.5" cy="101.5" r="1.5"></circle>
                        <circle id="Oval-Copy-18" cx="41.5" cy="101.5" r="1.5"></circle>
                        <circle id="Oval-Copy-19" cx="121.5" cy="101.5" r="1.5"></circle>
                        <circle id="Oval-Copy-20" cx="11.5" cy="101.5" r="1.5"></circle>
                        <circle id="Oval-Copy-21" cx="91.5" cy="101.5" r="1.5"></circle>
                        <circle id="Oval-Copy-22" cx="51.5" cy="101.5" r="1.5"></circle>
                        <circle id="Oval-Copy-23" cx="131.5" cy="101.5" r="1.5"></circle>
                        <circle id="Oval-Copy-24" cx="21.5" cy="101.5" r="1.5"></circle>
                        <circle id="Oval-Copy-25" cx="101.5" cy="101.5" r="1.5"></circle>
                        <circle id="Oval-Copy-26" cx="61.5" cy="101.5" r="1.5"></circle>
                        <circle id="Oval-Copy-27" cx="141.5" cy="101.5" r="1.5"></circle>
                        <circle id="Oval-Copy-28" cx="31.5" cy="101.5" r="1.5"></circle>
                        <circle id="Oval-Copy-29" cx="111.5" cy="101.5" r="1.5"></circle>
                        <circle id="Oval-Copy-30" cx="71.5" cy="101.5" r="1.5"></circle>
                        <circle id="Oval-Copy-31" cx="151.5" cy="101.5" r="1.5"></circle>
                    </g>
                </g>
            </g>
        </g>
    </g>
</svg>