<svg width="126" height="85" viewBox="0 0 126 85" fill="none" xmlns="http://www.w3.org/2000/svg">
<path d="M62.9262 11.8587C47.7394 11.8587 35.3671 25.7201 35.3671 42.7327C35.3671 59.7454 47.7394 73.6052 62.9262 73.6052C78.113 73.6052 90.4867 59.7454 90.4867 42.7327C90.4867 25.7201 78.113 11.8587 62.9262 11.8587ZM62.9262 18.3282C74.9917 18.3282 84.7115 29.2166 84.7115 42.7327C84.7115 56.2489 74.9917 67.1357 62.9262 67.1357C50.8606 67.1357 41.1423 56.2489 41.1423 42.7327C41.1423 29.2166 50.8606 18.3282 62.9262 18.3282ZM62.9268 6.46176L60.2323 8.33642L10.7933 42.7322L62.9256 79.0018L115.059 42.7314L62.9268 6.46176ZM62.9256 13.9595L104.282 42.7322L62.9268 71.5041L21.5702 42.7314L62.9256 13.9595Z" fill="#6600DE"/>
<path d="M120.43 48.5012C118.754 48.528 116.923 49.0273 115.071 50.237L68.3223 82.754L68.7809 83.0732C70.101 83.9284 71.8221 84.5208 73.7461 84.4901C75.4225 84.4635 77.2526 83.9637 79.1047 82.754L88.3015 76.3569V76.3583L125.851 50.2369L125.36 49.8953C124.045 49.0521 122.337 48.4708 120.43 48.5012V48.5012Z" fill="#6600DE"/>
<path d="M52.1076 0.974017C50.4313 1.00066 48.6012 1.5004 46.7491 2.71017L37.5522 9.10721V9.10369L0 35.2269C2.43117 37.0458 6.54898 37.9921 10.7824 35.2269L57.5315 2.70995L57.0729 2.39074C55.7527 1.53548 54.0316 0.943156 52.1076 0.973792V0.974017Z" fill="#6600DE"/>
</svg>
