<?xml version="1.0" encoding="UTF-8" standalone="no"?>
<svg
   xmlns:dc="http://purl.org/dc/elements/1.1/"
   xmlns:cc="http://creativecommons.org/ns#"
   xmlns:rdf="http://www.w3.org/1999/02/22-rdf-syntax-ns#"
   xmlns:svg="http://www.w3.org/2000/svg"
   xmlns="http://www.w3.org/2000/svg"
   id="svg1440"
   version="1.1"
   viewBox="0 0 41.087334 32.698845"
   height="32.698845mm"
   width="41.087334mm">
  <defs
     id="defs1434">
    <clipPath
       id="clipPath2480-6"
       clipPathUnits="userSpaceOnUse">
      <rect
         y="155.20509"
         x="543.34003"
         height="37.527077"
         width="149"
         id="rect2482-4"
         style="opacity:1;fill:#2a7fff;fill-opacity:0.7676768;stroke:none;stroke-width:3.9880836;stroke-linecap:butt;stroke-miterlimit:4;stroke-dasharray:none;stroke-opacity:1" />
    </clipPath>
  </defs>
  <metadata
     id="metadata1437">
    <rdf:RDF>
      <cc:Work
         rdf:about="">
        <dc:format>image/svg+xml</dc:format>
        <dc:type
           rdf:resource="http://purl.org/dc/dcmitype/StillImage" />
        <dc:title></dc:title>
      </cc:Work>
    </rdf:RDF>
  </metadata>
  <g
     transform="translate(-1.3789562,-38.745817)"
     id="layer1">
    <g
       id="g2495"
       style="display:inline"
       transform="matrix(0.26458333,0,0,0.26458333,-148.10554,-17.339584)">
      <g
         id="g2213"
         transform="translate(22.8761,83.933)"
         clip-path="url(#clipPath2480-6)">
        <g
           id="g2200">
          <path
             style="display:inline;opacity:1;fill:#64dd17;fill-opacity:1;stroke:none;stroke-width:0.99061614;stroke-linecap:round;stroke-miterlimit:4;stroke-dasharray:none;stroke-opacity:0.98492462"
             d="m 604.50474,155.30472 -0.77551,4.5148 6.00344,2.94913 3.21252,-3.33571 z m -2.21686,-0.10572 -7.33449,2.88202 1.28187,4.09953 5.25289,-2.32283 z m 12.17417,5.94635 -3.37412,3.50595 1.21803,5.03786 4.15598,-1.56382 z m -12.40064,2.17415 -5.60983,2.80919 -9.34508,19.97264 1.45042,5.10346 6.29607,2.94589 4.84564,-2.15756 9.34508,-19.97264 -1.1192,-5.80673 z m 14.15571,7.25087 -4.39052,1.65031 -10.19349,21.78592 1.5456,4.42993 z m -23.03274,-10.76397 -12.96724,27.71403 4.22201,-1.74641 10.1099,-21.60725 z m -9.22157,28.54799 -4.02924,1.66625 2.36993,6.15689 3.14675,-3.41177 z m 15.99647,7.54284 -4.29568,1.66881 -0.39479,4.67352 6.1709,-2.1003 z m -13.07475,-1.43617 -3.03465,3.28741 9.22386,4.31578 0.38284,-4.52817 z"
             id="path6161-3-4-8-3-3-1-9-9" />
          <path
             style="display:inline;fill:#eeeeee;fill-opacity:1;stroke:none;stroke-width:1.25px;stroke-linecap:butt;stroke-linejoin:miter;stroke-opacity:1"
             d="m 622.54119,167.29338 -8.90454,14.70511 1.53096,10.29489 h 32.37357 v -6.25 l -6.25,-12.5 z m 3.79882,4.61133 13.1875,4.29101 3.01953,9.375 -4.8457,-7.46875 z"
             id="path6376-5-8-36-5-9" />
          <path
             style="display:inline;fill:#0091ea;fill-opacity:1;stroke:none;stroke-width:1px;stroke-linecap:butt;stroke-linejoin:miter;stroke-opacity:1"
             d="m 564.55541,167.13137 -17.58797,8.54907 -3.19092,17.47188 30.56992,-0.3178 5.94671,-14.50733 z m -6.99642,6.25241 -5.61716,5.16851 -3.03502,7.86622 0.90036,-9.21431 z"
             id="path6386-7-6-7-7-1" />
          <path
             style="display:inline;opacity:1;fill:#ff5252;fill-opacity:1;stroke:none;stroke-width:2.73810005;stroke-linecap:round;stroke-miterlimit:4;stroke-dasharray:none;stroke-opacity:0.98492462"
             d="m 676.43998,170.78979 -14.62236,-9.42514 0.21568,4.78939 9.97024,6.42387 z m 0.76186,2.06633 -4.39776,1.77429 -3.03576,11.48607 2.99743,3.53092 z m -6.35707,1.35496 -9.91423,-6.38968 -9.142,7.45572 4.26691,10.99753 11.77746,-0.65889 z m -11.22897,-12.75671 -13.50194,11.01265 4.39342,1.27682 9.31901,-7.60125 z m 11.44098,29.58162 -2.91827,-3.43447 -12.08459,0.67589 -2.41477,3.73357 z m -21.18745,-15.18519 -4.31895,-1.25434 6.27059,16.16846 2.3957,-3.70264 z"
             id="path5975-5-1-6-7-6" />
          <path
             style="display:inline;opacity:1;fill:#ffcc00;fill-opacity:1;stroke:none;stroke-width:1.55102038;stroke-linecap:round;stroke-miterlimit:4;stroke-dasharray:none;stroke-opacity:1"
             d="m 580.87603,161.46153 a 8.5392132,8.5392132 0 0 0 -8.49217,7.71484 l 1.5957,1.06445 a 6.9100213,6.9100213 0 0 1 -0.008,-0.22851 6.9100213,6.9100213 0 0 1 6.91015,-6.91016 6.9100213,6.9100213 0 0 1 6.24219,3.96485 l 0.86133,-1.78711 a 8.5392132,8.5392132 0 0 0 -7.10938,-3.81836 z m -0.0156,2.40625 a 6.11553,6.11553 0 0 0 -6.1172,6.11523 6.11553,6.11553 0 0 0 0.0606,0.80664 l 7.63867,5.09375 a 6.11553,6.11553 0 0 0 0.51758,-0.16601 l 3.69531,-7.67188 a 6.11553,6.11553 0 0 0 -5.79491,-4.17773 z"
             id="path854-0-6-5-6-7-9" />
          <path
             style="display:inline;opacity:1;fill:#ffcc00;fill-opacity:1;stroke:none;stroke-width:1.55102038;stroke-linecap:round;stroke-miterlimit:4;stroke-dasharray:none;stroke-opacity:1"
             d="m 642.25093,159.20233 a 8.5392132,8.5392132 0 0 0 -8.53906,8.53906 8.5392132,8.5392132 0 0 0 0.0762,1.06836 l 1.77344,0.63086 a 6.9100213,6.9100213 0 0 1 -0.21289,-1.6875 6.9100213,6.9100213 0 0 1 6.91015,-6.91016 6.9100213,6.9100213 0 0 1 6.90039,6.61914 l 1.49804,-1.16797 a 8.5392132,8.5392132 0 0 0 -8.40624,-7.09179 z m -0.0137,2.40625 a 6.11553,6.11553 0 0 0 -6.11718,6.11523 6.11553,6.11553 0 0 0 0.35742,2.04102 l 6.67968,2.375 5.18165,-4.03906 a 6.11553,6.11553 0 0 0 0.0137,-0.37696 6.11553,6.11553 0 0 0 -6.11524,-6.11523 z"
             id="path854-0-1-7-8-4-0-9-0" />
          <path
             id="path1074-8-7-9-1-7"
             d="m 683.92013,179.6353 a 8.5392132,8.5392132 0 0 0 -8.53907,8.53906 8.5392132,8.5392132 0 0 0 8.53907,8.53906 8.5392132,8.5392132 0 0 0 8.53906,-8.53906 8.5392132,8.5392132 0 0 0 -8.53906,-8.53906 z m 0.006,1.64062 a 6.9100213,6.9100213 0 0 1 6.91015,6.91016 6.9100213,6.9100213 0 0 1 -6.91015,6.91016 6.9100213,6.9100213 0 0 1 -6.91016,-6.91016 6.9100213,6.9100213 0 0 1 6.91016,-6.91016 z m -0.0215,0.76563 a 6.11553,6.11553 0 0 0 -6.11718,6.11523 6.11553,6.11553 0 0 0 6.11718,6.11524 6.11553,6.11553 0 0 0 6.11524,-6.11524 6.11553,6.11553 0 0 0 -6.11524,-6.11523 z"
             style="display:inline;opacity:1;fill:#ffcc00;fill-opacity:1;stroke:none;stroke-width:1.55102038;stroke-linecap:round;stroke-miterlimit:4;stroke-dasharray:none;stroke-opacity:1" />
        </g>
        <path
           id="rect6392-2-2-4-4-1"
           d="m 532.25092,192.90997 h 181.77966 v 21.29238 H 532.25092 Z"
           style="display:inline;opacity:1;fill:#ffffff;fill-opacity:1;stroke:none;stroke-width:1.95459998;stroke-linecap:round;stroke-miterlimit:4;stroke-dasharray:none;stroke-opacity:0.98492462" />
      </g>
      <path
         id="path1026-4-6-7-9"
         style="display:inline;opacity:1;fill:#dab32c;fill-opacity:1;stroke:none;stroke-width:2.43263769;stroke-linecap:round;stroke-miterlimit:4;stroke-dasharray:none;stroke-opacity:1"
         d="m 594.98088,211.97632 c -23.38892,0.23296 -25.07883,5.20326 -29.9961,21.22071 h -0.004 l 4.04687,23.44922 4.66211,-2.01954 -3.70898,-21.42968 h 145 l -6.03516,26.65625 5.19336,1.41015 5.8418,-28.0664 c -4.91711,-16.01745 -6.49576,-20.96335 -29.9961,-21.22071 z M 565,281 v 20 h 59.97852 v -20 z m 97.25782,0 v 20 H 720 v -20 z m -96.98633,28.16797 v 8.47266 c 9.70482,0.49337 17.68262,8.12559 18.86719,17.92187 h 116.26367 c 1.22529,-10.13088 9.71728,-17.94725 19.86914,-17.94727 v -8.44726 h -58.01367 v 14.25976 h -37.2793 v -14.25976 z m 155,13.72461 c -7.5148,0 -13.6219,5.49833 -14.80274,12.66992 h 14.80274 z m -155,0.0527 v 12.61719 h 13.80078 c -1.12741,-6.84899 -6.75053,-12.15263 -13.80078,-12.61719 z m 65.45149,-41.46571 v 35.61429 h 25.78748 v -35.61429 z m 13.2446,6.19988 a 6.1739891,6.1739891 0 0 1 6.17512,6.17238 6.1739891,6.1739891 0 0 1 -3.08757,5.33856 v 7.00894 h -6.17512 v -7.00617 a 6.1739891,6.1739891 0 0 1 -3.08755,-5.34133 6.1739891,6.1739891 0 0 1 6.17512,-6.17238 z" />
    </g>
  </g>
</svg>
