<?xml version="1.0" encoding="UTF-8"?>
<svg width="86px" height="18px" viewBox="0 0 86 18" version="1.1" xmlns="http://www.w3.org/2000/svg" xmlns:xlink="http://www.w3.org/1999/xlink">
    <title>123BTC</title>
    <g id="页面-1" stroke="none" stroke-width="1" fill="none" fill-rule="evenodd">
        <g id="导航页面-（添加-logo-跳转）" transform="translate(-348.000000, -16.000000)" fill="#333333" fill-rule="nonzero">
            <g id="编组-5" transform="translate(348.000000, 16.000000)">
                <path d="M4.98585298,17.8259669 C5.79694868,17.8259669 6.44105409,17.1546961 6.44105409,16.3093923 L6.44105409,1.59116022 C6.44105409,0.745856354 5.82080444,0.0745856354 4.98585298,0.0745856354 L4.93814147,0.0745856354 C4.50873786,0.0745856354 4.07933426,0.174033149 3.50679612,0.348066298 L0.978085992,1.19337017 C0.381692094,1.36740331 0,1.86464088 0,2.51104972 C0,3.20718232 0.596393897,3.8038674 1.28821082,3.8038674 C1.43134535,3.8038674 1.64604716,3.77900552 1.81303745,3.72928177 L3.53065187,3.18232044 L3.53065187,16.3093923 C3.53065187,17.1546961 4.19861304,17.8259669 4.98585298,17.8259669 Z M20.8022191,17.7016575 C21.5178918,17.7016575 22.09043,17.1049724 22.09043,16.359116 C22.09043,15.6132597 21.5178918,15.0165746 20.8022191,15.0165746 L14.0271845,15.0165746 L17.4624133,12.0331492 C20.420527,9.52209945 21.8041609,8.03038674 21.8041609,5.29558011 L21.8041609,5.24585635 C21.8041609,2.13812155 19.5617198,0.0497237569 16.2934813,0.0497237569 C13.6693481,0.0497237569 12.118724,1.09392265 10.7589459,2.85911602 C10.5442441,3.13259669 10.4249653,3.48066298 10.4249653,3.8038674 C10.4249653,4.57458564 11.0213592,5.1961326 11.7608877,5.1961326 C12.2380028,5.1961326 12.5719834,4.97237569 12.7866852,4.72375691 C13.8124827,3.43093923 14.7428571,2.78453039 16.0787795,2.78453039 C17.6055479,2.78453039 18.7744799,3.77900552 18.7744799,5.49447514 C18.7744799,7.06077348 17.9395284,8.17955801 15.6493759,10.1933702 L10.5203883,14.7430939 C10.0194175,15.1657459 9.75700416,15.6629834 9.75700416,16.2596685 C9.75700416,17.1546961 10.4249653,17.7016575 11.331484,17.7016575 L20.8022191,17.7016575 Z M30.7739251,18 C34.2568655,18 36.6185853,15.6878453 36.6185853,12.480663 L36.6185853,12.4309392 C36.6185853,9.22375691 34.2330097,7.88121547 31.7042996,7.55801105 L35.6404993,3.30662983 C36.1414702,2.78453039 36.4754508,2.36187845 36.4754508,1.64088398 C36.4754508,0.820441989 35.8552011,0.298342541 35.0202497,0.298342541 L26.479889,0.298342541 C25.7642164,0.298342541 25.1916782,0.895027624 25.1916782,1.64088398 C25.1916782,2.36187845 25.7642164,2.95856354 26.479889,2.95856354 L32.539251,2.95856354 L28.6269071,7.30939227 C28.1736477,7.78176796 28.0066574,8.15469613 28.0066574,8.55248619 C28.0066574,9.27348066 28.5791956,9.87016575 29.2710125,9.87016575 L29.8674064,9.87016575 C32.2052705,9.87016575 33.7081831,10.839779 33.7081831,12.5552486 L33.7081831,12.6049724 C33.7081831,14.1961326 32.4676838,15.2403315 30.8216366,15.2403315 C29.2710125,15.2403315 28.0782247,14.6685083 27.0285714,13.5745856 C26.7900139,13.3508287 26.479889,13.1767956 26.0504854,13.1767956 C25.2871012,13.1767956 24.6429958,13.8480663 24.6429958,14.6436464 C24.6429958,15.0911602 24.8576976,15.5138122 25.120111,15.7375691 C26.479889,17.1049724 28.3167822,18 30.7739251,18 Z M47.9739251,17.7016575 C51.695423,17.7016575 54.1525659,16.0359116 54.1525659,12.9281768 L54.1525659,12.878453 C54.1525659,10.5165746 52.7927878,9.3480663 50.8366158,8.6519337 C52.0771151,7.98066298 53.2221914,6.86187845 53.2221914,4.77348066 L53.2221914,4.72375691 C53.2221914,3.55524862 52.8404993,2.61049724 52.1009709,1.83977901 C51.1467406,0.845303867 49.643828,0.298342541 47.7353675,0.298342541 L41.7237171,0.298342541 C40.8887656,0.298342541 40.2446602,0.96961326 40.2446602,1.83977901 L40.2446602,16.160221 C40.2446602,17.0303867 40.8887656,17.7016575 41.7237171,17.7016575 L47.9739251,17.7016575 Z M47.1389736,7.63259669 L43.1312067,7.63259669 L43.1312067,3.00828729 L47.3536755,3.00828729 C49.2382802,3.00828729 50.2879334,3.85359116 50.2879334,5.22099448 L50.2879334,5.27071823 C50.2879334,6.86187845 49.0235784,7.63259669 47.1389736,7.63259669 Z M47.9977809,14.9917127 L43.1312067,14.9917127 L43.1312067,10.218232 L47.7830791,10.218232 C50.0970874,10.218232 51.2183079,11.0883978 51.2183079,12.5552486 L51.2183079,12.6049724 C51.2183079,14.1712707 50.0016644,14.9917127 47.9977809,14.9917127 Z M62.740638,17.8259669 C63.5517337,17.8259669 64.2196949,17.1546961 64.2196949,16.3093923 L64.2196949,3.13259669 L68.2990291,3.13259669 C69.0385576,3.13259669 69.6349515,2.48618785 69.6349515,1.71546961 C69.6349515,0.944751381 69.0385576,0.298342541 68.2990291,0.298342541 L57.2061026,0.298342541 C56.4427184,0.298342541 55.8463245,0.944751381 55.8463245,1.71546961 C55.8463245,2.48618785 56.4427184,3.13259669 57.2061026,3.13259669 L61.2615811,3.13259669 L61.2615811,16.3093923 C61.2615811,17.1546961 61.9295423,17.8259669 62.740638,17.8259669 Z M79.4635229,18 C82.1592233,18 83.948405,17.1049724 85.5228849,15.6629834 C85.7852982,15.4143646 86,15.0414365 86,14.5690608 C86,13.7983425 85.3558946,13.1519337 84.6163662,13.1519337 C84.2585298,13.1519337 83.948405,13.301105 83.7337032,13.5 C82.5170596,14.5690608 81.3242718,15.1657459 79.5589459,15.1657459 C76.3622746,15.1657459 74.0482663,12.4060773 74.0482663,9 L74.0482663,8.95027624 C74.0482663,5.5441989 76.3861304,2.80939227 79.5589459,2.80939227 C81.1572816,2.80939227 82.3977809,3.40607735 83.5428571,4.37569061 C83.7337032,4.52486188 84.0199723,4.67403315 84.4255201,4.67403315 C85.2366158,4.67403315 85.8807212,4.02762431 85.8807212,3.18232044 C85.8807212,2.63535912 85.6183079,2.21270718 85.3081831,1.9640884 C83.852982,0.79558011 82.1592233,0 79.5828017,0 C74.5253814,0 70.9708738,4.05248619 70.9708738,9 L70.9708738,9.04972376 C70.9708738,14.0469613 74.5969487,18 79.4635229,18 Z" id="123BTC"></path>
            </g>
        </g>
    </g>
</svg>