<?xml version="1.0" encoding="UTF-8"?>
<svg width="86px" height="18px" viewBox="0 0 86 18" version="1.1" xmlns="http://www.w3.org/2000/svg" xmlns:xlink="http://www.w3.org/1999/xlink">
    <title>123ETH</title>
    <g id="页面-1" stroke="none" stroke-width="1" fill="none" fill-rule="evenodd">
        <g id="导航页面-（添加-logo-跳转）" transform="translate(-151.000000, -16.000000)" fill="#333333" fill-rule="nonzero">
            <g id="编组-7" transform="translate(150.000000, 16.000000)">
                <path d="M6.01366806,17.8254848 C6.8292887,17.8254848 7.47698745,17.1523546 7.47698745,16.3047091 L7.47698745,1.54570637 C7.47698745,0.698060942 6.85327755,0.0249307479 6.01366806,0.0249307479 L5.96569038,0.0249307479 C5.53389121,0.0249307479 5.10209205,0.12465374 4.52635983,0.299168975 L1.98354254,1.1468144 C1.38382148,1.32132964 1,1.8199446 1,2.46814404 C1,3.16620499 1.59972106,3.76454294 2.29539749,3.76454294 C2.43933054,3.76454294 2.65523013,3.73961219 2.82315202,3.68975069 L4.55034868,3.14127424 L4.55034868,16.3047091 C4.55034868,17.1523546 5.22203626,17.8254848 6.01366806,17.8254848 Z M21.9182706,17.700831 C22.6379358,17.700831 23.2136681,17.1024931 23.2136681,16.3545706 C23.2136681,15.6066482 22.6379358,15.0083102 21.9182706,15.0083102 L15.1054393,15.0083102 L18.5598326,12.0166205 C21.5344491,9.49861496 22.925802,8.00277008 22.925802,5.26038781 L22.925802,5.21052632 C22.925802,2.09418283 20.6708508,0 17.3843794,0 C14.7456067,0 13.1863319,1.04709141 11.8189679,2.81717452 C11.6030683,3.09141274 11.4831241,3.44044321 11.4831241,3.76454294 C11.4831241,4.53739612 12.0828452,5.16066482 12.8264993,5.16066482 C13.3062762,5.16066482 13.6421199,4.93628809 13.8580195,4.68698061 C14.8895397,3.39058172 15.8251046,2.74238227 17.1684798,2.74238227 C18.7037657,2.74238227 19.879219,3.73961219 19.879219,5.4598338 C19.879219,7.03047091 19.0396095,8.15235457 16.7366806,10.1717452 L11.5790795,14.734072 C11.0753138,15.1578947 10.8114365,15.6565097 10.8114365,16.2548476 C10.8114365,17.1523546 11.4831241,17.700831 12.3947001,17.700831 L21.9182706,17.700831 Z M31.9456067,18 C35.4479777,18 37.8228731,15.6814404 37.8228731,12.465374 L37.8228731,12.4155125 C37.8228731,9.19944598 35.4239888,7.8531856 32.8811715,7.52908587 L36.8393305,3.26592798 C37.3430962,2.74238227 37.67894,2.31855956 37.67894,1.59556787 C37.67894,0.772853186 37.0552301,0.249307479 36.2156206,0.249307479 L27.6276151,0.249307479 C26.9079498,0.249307479 26.3322176,0.847645429 26.3322176,1.59556787 C26.3322176,2.31855956 26.9079498,2.91689751 27.6276151,2.91689751 L33.720781,2.91689751 L29.7866109,7.27977839 C29.3308229,7.7534626 29.162901,8.12742382 29.162901,8.52631579 C29.162901,9.24930748 29.7386332,9.84764543 30.4343096,9.84764543 L31.0340307,9.84764543 C33.3849372,9.84764543 34.8962343,10.8199446 34.8962343,12.5401662 L34.8962343,12.5900277 C34.8962343,14.1855956 33.6488145,15.232687 31.9935844,15.232687 C30.4343096,15.232687 29.2348675,14.6592798 28.1793584,13.5623269 C27.93947,13.3379501 27.6276151,13.1634349 27.1958159,13.1634349 C26.4281729,13.1634349 25.7804742,13.8365651 25.7804742,14.634349 C25.7804742,15.0831025 25.9963738,15.5069252 26.260251,15.7313019 C27.6276151,17.1024931 29.4747559,18 31.9456067,18 Z M52.8398884,17.700831 C53.5595537,17.700831 54.1592748,17.1024931 54.1592748,16.3296399 C54.1592748,15.5817175 53.5595537,14.9584488 52.8398884,14.9584488 L44.4198047,14.9584488 L44.4198047,10.2714681 L51.6404463,10.2714681 C52.3601116,10.2714681 52.9598326,9.67313019 52.9598326,8.92520776 C52.9598326,8.15235457 52.3601116,7.52908587 51.6404463,7.52908587 L44.4198047,7.52908587 L44.4198047,2.99168975 L52.7199442,2.99168975 C53.4396095,2.99168975 54.0393305,2.3933518 54.0393305,1.62049861 C54.0393305,0.872576177 53.4396095,0.249307479 52.7199442,0.249307479 L42.9564854,0.249307479 C42.1168759,0.249307479 41.4691771,0.922437673 41.4691771,1.79501385 L41.4691771,16.1551247 C41.4691771,17.0277008 42.1168759,17.700831 42.9564854,17.700831 L52.8398884,17.700831 Z M63.1550907,17.8254848 C63.9707113,17.8254848 64.6423989,17.1523546 64.6423989,16.3047091 L64.6423989,3.09141274 L68.7444909,3.09141274 C69.488145,3.09141274 70.0878661,2.4432133 70.0878661,1.67036011 C70.0878661,0.897506925 69.488145,0.249307479 68.7444909,0.249307479 L57.5896792,0.249307479 C56.8220363,0.249307479 56.2223152,0.897506925 56.2223152,1.67036011 C56.2223152,2.4432133 56.8220363,3.09141274 57.5896792,3.09141274 L61.6677824,3.09141274 L61.6677824,16.3047091 C61.6677824,17.1523546 62.33947,17.8254848 63.1550907,17.8254848 Z M85.5126918,17.8254848 C86.3523013,17.8254848 87,17.1523546 87,16.3047091 L87,1.64542936 C87,0.797783934 86.3523013,0.12465374 85.5126918,0.12465374 C84.6970711,0.12465374 84.0493724,0.797783934 84.0493724,1.64542936 L84.0493724,7.50415512 L76.037099,7.50415512 L76.037099,1.64542936 C76.037099,0.797783934 75.3894003,0.12465374 74.5737796,0.12465374 C73.7341702,0.12465374 73.0864714,0.797783934 73.0864714,1.64542936 L73.0864714,16.3047091 C73.0864714,17.1523546 73.7341702,17.8254848 74.5737796,17.8254848 C75.3894003,17.8254848 76.037099,17.1523546 76.037099,16.3047091 L76.037099,10.3462604 L84.0493724,10.3462604 L84.0493724,16.3047091 C84.0493724,17.1523546 84.6970711,17.8254848 85.5126918,17.8254848 Z" id="123ETH"></path>
            </g>
        </g>
    </g>
</svg>