<?xml version="1.0" encoding="UTF-8"?>
<svg width="220px" height="38px" viewBox="0 0 220 38" version="1.1" xmlns="http://www.w3.org/2000/svg" xmlns:xlink="http://www.w3.org/1999/xlink">
    <title>编组 9</title>
    <g id="页面-1" stroke="none" stroke-width="1" fill="none" fill-rule="evenodd">
        <g id="导航网站备份-2" transform="translate(-610.000000, -50.000000)" fill="#333333" fill-rule="nonzero">
            <g id="编组-9" transform="translate(610.000000, 50.000000)">
                <path d="M30.8274138,38 L30.8274138,31.1101813 L8.6657707,31.1101813 C7.8449691,31.1101813 7.22147558,30.8716876 6.79529014,30.3947001 C6.36910469,29.9177127 6.15601197,29.2287308 6.15601197,28.3277545 L6.15601197,28.3277545 L6.15601197,6.88981869 L30.8274138,6.88981869 L30.8274138,0 L3.10168295,0 C2.65971286,0 2.24931207,0.0883310088 1.87048056,0.264993026 C1.49164905,0.441655044 1.16411765,0.688981869 0.887886342,1.0069735 C0.611655035,1.32496513 0.394616152,1.69595537 0.236769691,2.11994421 C0.0789232304,2.54393305 0,2.9944212 0,3.47140865 L0,3.47140865 L0,28.3277545 C0,30.1120409 0.288069791,31.6180846 0.864209373,32.8458856 C1.44034895,34.0736867 2.15855035,35.0718271 3.01881356,35.8403068 C3.87907677,36.6087866 4.81431705,37.1608554 5.8245344,37.4965132 C6.83475175,37.8321711 7.76604587,38 8.61841676,38 L8.61841676,38 L30.8274138,38 Z M28.0249216,22.8 L28.0249216,16.15 L8.40747649,16.15 L8.40747649,22.8 L28.0249216,22.8 Z M53.9444884,38 L53.9444884,6.88981869 L67.2598119,6.88981869 L67.2598119,0 L34.56407,0 L34.56407,6.88981869 L47.9026314,6.88981869 L47.9026314,38 L53.9444884,38 Z M78.0323597,38 L78.0323597,22.4714086 L99.4588106,22.4714086 L99.4588106,38 L105.560538,38 L105.560538,0 L99.4588106,0 L99.4588106,15.5285914 L78.0323597,15.5285914 L78.0323597,0 L71.9306322,0 L71.9306322,38 L78.0323597,38 Z" id="ETH123"></path>
                <polygon id="路径" points="140.089686 38 140.089686 0 128.251121 0 128.251121 6.88981869 133.860119 6.88981869 133.860119 38"></polygon>
                <path d="M182.511211,38 L182.511211,31.1101813 L155.590536,31.1101813 L155.590536,25.2538354 C155.641474,24.9181776 155.709391,24.5825198 155.794287,24.2468619 C155.879184,23.9112041 156.010773,23.6108787 156.189056,23.3458856 C156.367338,23.0808926 156.617783,22.8688982 156.94039,22.7099024 C157.262996,22.5509066 157.695968,22.4714086 158.239306,22.4714086 L158.239306,22.4714086 L173.215046,22.4714086 C174.148907,22.4714086 175.15493,22.2991632 176.233116,21.9546722 C177.311301,21.6101813 178.317324,21.053696 179.251186,20.2852162 C180.185047,19.5167364 180.96185,18.518596 181.581594,17.290795 C182.201339,16.062994 182.511211,14.5569503 182.511211,12.7726639 L182.511211,12.7726639 L182.511211,9.67224547 C182.511211,9.0362622 182.439049,8.35169689 182.294725,7.61854951 C182.150401,6.88540214 181.92118,6.16108787 181.607063,5.44560669 C181.292946,4.73012552 180.889688,4.0455602 180.397288,3.39191074 C179.904889,2.73826127 179.314858,2.15969317 178.627197,1.65620642 C177.939535,1.15271967 177.145753,0.750813575 176.24585,0.450488145 C175.345947,0.150162715 174.335679,0 173.215046,0 L173.215046,0 L151.948476,0 L151.948476,6.88981869 L173.215046,6.88981869 C174.064011,6.88981869 174.709224,7.12831241 175.150686,7.60529986 C175.592147,8.08228731 175.812878,8.78893538 175.812878,9.72524407 L175.812878,9.72524407 L175.812878,12.7726639 C175.812878,13.6736402 175.596392,14.3582055 175.16342,14.8263598 C174.730448,15.2945142 174.064011,15.5285914 173.164108,15.5285914 L173.164108,15.5285914 L158.239306,15.5285914 C157.101693,15.5285914 156.082935,15.6787541 155.183033,15.9790795 C154.28313,16.2794049 153.489348,16.681311 152.801686,17.1847978 C152.114025,17.6882845 151.528239,18.2668526 151.044329,18.9205021 C150.560419,19.5741516 150.16565,20.2631334 149.860023,20.9874477 C149.554396,21.711762 149.32942,22.4404928 149.185096,23.1736402 C149.040772,23.9067875 148.96861,24.600186 148.96861,25.2538354 L148.96861,25.2538354 L148.96861,38 L182.511211,38 Z" id="路径"></path>
                <path d="M210.3896,38 C211.355028,38 212.399446,37.8321711 213.522853,37.4965132 C214.646261,37.1608554 215.686291,36.6087866 216.642942,35.8403068 C217.599594,35.0718271 218.398267,34.0736867 219.03896,32.8458856 C219.679653,31.6180846 220,30.1120409 220,28.3277545 L220,28.3277545 L220,9.67224547 C220,9.0362622 219.925399,8.35169689 219.776196,7.61854951 C219.626994,6.88540214 219.394413,6.16108787 219.078455,5.44560669 C218.762496,4.73012552 218.349995,4.0455602 217.840951,3.39191074 C217.331907,2.73826127 216.721932,2.15969317 216.011026,1.65620642 C215.300119,1.15271967 214.479505,0.750813575 213.549183,0.450488145 C212.618862,0.150162715 211.565667,0 210.3896,0 L210.3896,0 L188.430493,0 L188.430493,6.88981869 L210.3896,6.88981869 C212.215137,6.88981869 213.127906,7.83496048 213.127906,9.72524407 L213.127906,9.72524407 L213.127906,15.5285914 L188.430493,15.5285914 L188.430493,22.4714086 L213.127906,22.4714086 L213.127906,28.3277545 C213.127906,29.2287308 212.904102,29.9177127 212.456494,30.3947001 C212.008886,30.8716876 211.319922,31.1101813 210.3896,31.1101813 L210.3896,31.1101813 L188.430493,31.1101813 L188.430493,38 L210.3896,38 Z" id="路径"></path>
            </g>
        </g>
    </g>
</svg>